<svg width="150" height="150" viewBox="0 0 150 150" fill="none" xmlns="http://www.w3.org/2000/svg">
<path d="M75 1.5C84.6521 1.5 94.2096 3.40108 103.127 7.09473C112.044 10.7884 120.148 16.2022 126.973 23.0273C133.798 29.8524 139.212 37.9556 142.905 46.873C146.599 55.7904 148.5 65.3479 148.5 75C148.5 84.6521 146.599 94.2096 142.905 103.127C139.212 112.044 133.798 120.148 126.973 126.973C120.148 133.798 112.044 139.212 103.127 142.905C94.2096 146.599 84.6521 148.5 75 148.5C55.5066 148.5 36.8113 140.757 23.0273 126.973C9.24342 113.189 1.5 94.4934 1.5 75C1.5 55.5066 9.24342 36.8113 23.0273 23.0273C36.8113 9.24342 55.5066 1.5 75 1.5ZM59.8564 38.8252C57.853 38.8502 55.8905 39.3974 54.1641 40.4141C52.4377 41.4307 51.0072 42.8813 50.0137 44.6211C49.0204 46.3606 48.4984 48.3299 48.5 50.333V99.665C48.4981 101.669 49.0201 103.639 50.0137 105.379C51.0072 107.119 52.4377 108.569 54.1641 109.586C55.8905 110.603 57.853 111.15 59.8564 111.175C61.7348 111.198 63.5884 110.761 65.2559 109.904L65.5869 109.728L112.62 83.5947C114.152 82.7429 115.43 81.4964 116.318 79.9854C117.207 78.4743 117.676 76.753 117.676 75C117.676 73.2469 117.207 71.5257 116.318 70.0146C115.43 68.5036 114.152 67.2571 112.62 66.4053L65.5869 40.2725C63.8356 39.299 61.86 38.8003 59.8564 38.8252Z" fill="white" stroke="url(#paint0_linear_30_131)" stroke-width="3"/>
<defs>
<linearGradient id="paint0_linear_30_131" x1="75" y1="0" x2="75" y2="150" gradientUnits="userSpaceOnUse">
<stop stop-color="#3772FF"/>
<stop offset="1" stop-color="#5585CB"/>
</linearGradient>
</defs>
</svg>
