<svg width="54" height="62" viewBox="0 0 54 62" fill="none" xmlns="http://www.w3.org/2000/svg">
<path fill-rule="evenodd" clip-rule="evenodd" d="M23.9061 5.39162e-08C20.0937 0.000324846 16.3367 0.912346 12.9485 2.65997C9.56023 4.4076 6.63906 6.94015 4.42866 10.0463C2.21827 13.1525 0.782743 16.7423 0.241852 20.5161C-0.299038 24.2899 0.0703919 28.1384 1.31932 31.7404C2.56825 35.3424 4.66046 38.5935 7.4214 41.2225C10.1823 43.8514 13.5319 45.782 17.1908 46.8532C20.8496 47.9243 24.7115 48.105 28.4543 47.38C32.1971 46.6551 35.7123 45.0456 38.7066 42.6858L48.9787 52.9579C49.5092 53.4703 50.2197 53.7538 50.9571 53.7474C51.6946 53.7409 52.4001 53.4451 52.9216 52.9236C53.4431 52.4021 53.7389 51.6967 53.7453 50.9592C53.7517 50.2217 53.4682 49.5112 52.9559 48.9807L42.6838 38.7087C45.4628 35.1832 47.1931 30.9467 47.6767 26.4838C48.1603 22.0209 47.3777 17.5121 45.4184 13.4732C43.4591 9.43433 40.4024 6.02866 36.5979 3.64594C32.7935 1.26321 28.3951 -0.000301364 23.9061 5.39162e-08ZM5.62341 23.9081C5.62341 19.0593 7.54961 14.409 10.9783 10.9803C14.4069 7.55165 19.0572 5.62544 23.9061 5.62544C28.755 5.62544 33.4052 7.55165 36.8339 10.9803C40.2626 14.409 42.1888 19.0593 42.1888 23.9081C42.1888 28.757 40.2626 33.4073 36.8339 36.8359C33.4052 40.2646 28.755 42.1908 23.9061 42.1908C19.0572 42.1908 14.4069 40.2646 10.9783 36.8359C7.54961 33.4073 5.62341 28.757 5.62341 23.9081Z" fill="white"/>
</svg>
